<?xml version="1.0" encoding="UTF-8"?><svg xmlns="http://www.w3.org/2000/svg" xmlns:xlink="http://www.w3.org/1999/xlink" fill-opacity="1" color-rendering="auto" color-interpolation="auto" text-rendering="auto" stroke="black" stroke-linecap="square" width="174" stroke-miterlimit="10" shape-rendering="auto" stroke-opacity="1" fill="black" stroke-dasharray="none" font-weight="normal" stroke-width="1" height="157" font-family="'Dialog'" font-style="normal" stroke-linejoin="miter" font-size="12px" stroke-dashoffset="0" image-rendering="auto">
  <!--Generated by ySVG 2.5-->
  <defs id="genericDefs"/>
  <g>
    <defs id="defs1">
      <clipPath clipPathUnits="userSpaceOnUse" id="clipPath1">
        <path d="M0 0 L174 0 L174 157 L0 157 L0 0 Z"/>
      </clipPath>
      <clipPath clipPathUnits="userSpaceOnUse" id="clipPath2">
        <path d="M-15 -15 L159 -15 L159 142 L-15 142 L-15 -15 Z"/>
      </clipPath>
    </defs>
    <g fill="white" text-rendering="geometricPrecision" shape-rendering="geometricPrecision" transform="translate(15,15)" stroke="white">
      <rect x="-15" width="174" height="157" y="-15" clip-path="url(#clipPath2)" stroke="none"/>
    </g>
    <g font-size="18px" stroke-linecap="butt" transform="matrix(1,0,0,1,15,15)" text-rendering="geometricPrecision" font-family="sans-serif" shape-rendering="geometricPrecision" stroke-miterlimit="1.45">
      <text x="68.4976" xml:space="preserve" y="18.2949" clip-path="url(#clipPath2)" stroke="none">*</text>
      <text x="25.7441" xml:space="preserve" y="69.2949" clip-path="url(#clipPath2)" stroke="none">+</text>
      <text x="110.0029" xml:space="preserve" y="69.2949" clip-path="url(#clipPath2)" stroke="none">-</text>
      <text x="5.4946" xml:space="preserve" y="120.2949" clip-path="url(#clipPath2)" stroke="none">a</text>
      <text x="46.4946" xml:space="preserve" y="120.2949" clip-path="url(#clipPath2)" stroke="none">b</text>
      <text x="88" xml:space="preserve" y="120.2949" clip-path="url(#clipPath2)" stroke="none">c</text>
      <text x="128.4946" xml:space="preserve" y="120.2949" clip-path="url(#clipPath2)" stroke="none">d</text>
      <path fill="none" d="M65.4212 20.2381 L37.5788 54.8712" clip-path="url(#clipPath2)"/>
      <path fill="none" d="M78.5788 20.2381 L106.4212 54.8712" clip-path="url(#clipPath2)"/>
      <path fill="none" d="M27.0839 72.7971 L14.4161 104.3123" clip-path="url(#clipPath2)"/>
      <path fill="none" d="M34.9161 72.7971 L47.5839 104.3123" clip-path="url(#clipPath2)"/>
      <path fill="none" d="M109.0839 72.7971 L96.4161 104.3123" clip-path="url(#clipPath2)"/>
      <path fill="none" d="M116.9161 72.7971 L129.5839 104.3123" clip-path="url(#clipPath2)"/>
    </g>
  </g>
</svg>
