<?xml version="1.0" encoding="UTF-8"?><svg xmlns="http://www.w3.org/2000/svg" xmlns:xlink="http://www.w3.org/1999/xlink" fill-opacity="1" color-rendering="auto" color-interpolation="auto" text-rendering="auto" stroke="black" stroke-linecap="square" width="351" stroke-miterlimit="10" shape-rendering="auto" stroke-opacity="1" fill="black" stroke-dasharray="none" font-weight="normal" stroke-width="1" height="193" font-family="'Dialog'" font-style="normal" stroke-linejoin="miter" font-size="12px" stroke-dashoffset="0" image-rendering="auto">
  <!--Generated by ySVG 2.6-->
  <defs id="genericDefs"/>
  <g>
    <defs id="defs1">
      <clipPath clipPathUnits="userSpaceOnUse" id="clipPath1">
        <path d="M0 0 L351 0 L351 193 L0 193 L0 0 Z"/>
      </clipPath>
      <clipPath clipPathUnits="userSpaceOnUse" id="clipPath2">
        <path d="M-141 12 L210 12 L210 205 L-141 205 L-141 12 Z"/>
      </clipPath>
      <clipPath clipPathUnits="userSpaceOnUse" id="clipPath3">
        <path d="M26 126 L26 190 L126 190 L126 126 Z"/>
      </clipPath>
      <clipPath clipPathUnits="userSpaceOnUse" id="clipPath4">
        <path d="M-126 126 L-126 190 L-26 190 L-26 126 Z"/>
      </clipPath>
    </defs>
    <g fill="white" text-rendering="geometricPrecision" shape-rendering="geometricPrecision" transform="translate(141,-12)" stroke="white">
      <rect x="-141" width="351" height="193" y="12" clip-path="url(#clipPath2)" stroke="none"/>
    </g>
    <g text-rendering="geometricPrecision" stroke-miterlimit="1.45" shape-rendering="geometricPrecision" transform="matrix(1,0,0,1,141,-12)" stroke-linecap="butt">
      <rect fill="none" x="26" width="100" height="64" y="126" clip-path="url(#clipPath2)"/>
      <text x="59.7532" font-size="13px" y="144.0698" clip-path="url(#clipPath3)" font-family="sans-serif" stroke="none" font-weight="bold" xml:space="preserve">Point</text>
      <line stroke-linecap="square" clip-path="url(#clipPath3)" fill="none" x1="27" x2="125" y1="151" y2="151" stroke-miterlimit="10"/>
      <text x="31" xml:space="preserve" y="168.9907" clip-path="url(#clipPath3)" font-family="sans-serif" stroke="none">x: int = 11</text>
      <text x="31" xml:space="preserve" y="183.6919" clip-path="url(#clipPath3)" font-family="sans-serif" stroke="none">y: int = 7</text>
      <line stroke-linecap="square" clip-path="url(#clipPath3)" fill="none" x1="27" x2="125" y1="191" y2="191" stroke-miterlimit="10"/>
      <rect fill="none" x="-17.5" width="30" height="30" y="50" clip-path="url(#clipPath2)"/>
      <text x="-5.8369" xml:space="preserve" y="41.3633" clip-path="url(#clipPath2)" font-family="sans-serif" stroke="none">p</text>
      <circle stroke-linecap="square" clip-path="url(#clipPath2)" r="4" cx="-2.5" cy="65" stroke="none" stroke-miterlimit="10"/>
      <circle fill="none" r="4" clip-path="url(#clipPath2)" cx="-2.5" cy="65"/>
      <rect fill="none" x="165" width="30" height="30" y="50" clip-path="url(#clipPath2)"/>
      <text x="176.6631" xml:space="preserve" y="41.3633" clip-path="url(#clipPath2)" font-family="sans-serif" stroke="none">p</text>
      <circle stroke-linecap="square" clip-path="url(#clipPath2)" r="4" cx="180" cy="65" stroke="none" stroke-miterlimit="10"/>
      <circle fill="none" r="4" clip-path="url(#clipPath2)" cx="180" cy="65"/>
      <rect fill="none" x="-126" width="100" height="64" y="126" clip-path="url(#clipPath2)"/>
      <text x="-92.2468" font-size="13px" y="144.0698" clip-path="url(#clipPath4)" font-family="sans-serif" stroke="none" font-weight="bold" xml:space="preserve">Point</text>
      <line stroke-linecap="square" clip-path="url(#clipPath4)" fill="none" x1="-125" x2="-27" y1="151" y2="151" stroke-miterlimit="10"/>
      <text x="-121" xml:space="preserve" y="168.9907" clip-path="url(#clipPath4)" font-family="sans-serif" stroke="none">x: int = 15</text>
      <text x="-121" xml:space="preserve" y="183.6919" clip-path="url(#clipPath4)" font-family="sans-serif" stroke="none">y: int = 17</text>
      <line stroke-linecap="square" clip-path="url(#clipPath4)" fill="none" x1="-125" x2="-27" y1="191" y2="191" stroke-miterlimit="10"/>
      <path fill="none" d="M177.0183 67.6663 L117.749 120.6668" clip-path="url(#clipPath2)"/>
      <path d="M111.7855 125.9995 L124.0636 121.7276 L118.4944 120.0002 L117.3977 114.2733 Z" clip-path="url(#clipPath2)" stroke="none"/>
      <path fill="none" d="M-4.5472 68.4364 L-34.7397 119.1166" clip-path="url(#clipPath2)"/>
      <path d="M-38.8341 125.9894 L-28.3969 118.2392 L-34.2279 118.2575 L-36.988 113.1211 Z" clip-path="url(#clipPath2)" stroke="none"/>
    </g>
  </g>
</svg>
