<?xml version="1.0" encoding="UTF-8"?><svg xmlns="http://www.w3.org/2000/svg" xmlns:xlink="http://www.w3.org/1999/xlink" fill-opacity="1" color-rendering="auto" color-interpolation="auto" text-rendering="auto" stroke="black" stroke-linecap="square" width="319" stroke-miterlimit="10" shape-rendering="auto" stroke-opacity="1" fill="black" stroke-dasharray="none" font-weight="normal" stroke-width="1" height="117" font-family="'Dialog'" font-style="normal" stroke-linejoin="miter" font-size="12px" stroke-dashoffset="0" image-rendering="auto">
  <!--Generated by ySVG 2.6-->
  <defs id="genericDefs"/>
  <g>
    <defs id="defs1">
      <clipPath clipPathUnits="userSpaceOnUse" id="clipPath1">
        <path d="M0 0 L319 0 L319 117 L0 117 L0 0 Z"/>
      </clipPath>
      <clipPath clipPathUnits="userSpaceOnUse" id="clipPath2">
        <path d="M-178 88 L141 88 L141 205 L-178 205 L-178 88 Z"/>
      </clipPath>
      <clipPath clipPathUnits="userSpaceOnUse" id="clipPath3">
        <path d="M-163 126 L-163 190 L-63 190 L-63 126 Z"/>
      </clipPath>
      <clipPath clipPathUnits="userSpaceOnUse" id="clipPath4">
        <path d="M26 126 L26 190 L126 190 L126 126 Z"/>
      </clipPath>
    </defs>
    <g fill="white" text-rendering="geometricPrecision" shape-rendering="geometricPrecision" transform="translate(178,-88)" stroke="white">
      <rect x="-178" width="319" height="117" y="88" clip-path="url(#clipPath2)" stroke="none"/>
    </g>
    <g text-rendering="geometricPrecision" stroke-miterlimit="1.45" shape-rendering="geometricPrecision" transform="matrix(1,0,0,1,178,-88)" stroke-linecap="butt">
      <rect fill="none" x="-163" width="100" height="64" y="126" clip-path="url(#clipPath2)"/>
      <text x="-129.2468" font-size="13px" y="144.0698" clip-path="url(#clipPath3)" font-family="sans-serif" stroke="none" font-weight="bold" xml:space="preserve">Point</text>
      <line stroke-linecap="square" clip-path="url(#clipPath3)" fill="none" x1="-162" x2="-64" y1="151" y2="151" stroke-miterlimit="10"/>
      <text x="-158" xml:space="preserve" y="168.9907" clip-path="url(#clipPath3)" font-family="sans-serif" stroke="none">x: int = 11</text>
      <text x="-158" xml:space="preserve" y="183.6919" clip-path="url(#clipPath3)" font-family="sans-serif" stroke="none">y: int = 7</text>
      <line stroke-linecap="square" clip-path="url(#clipPath3)" fill="none" x1="-162" x2="-64" y1="191" y2="191" stroke-miterlimit="10"/>
      <rect stroke-linecap="square" x="-118.3369" y="103.2988" clip-path="url(#clipPath2)" fill="none" width="10.6738" height="18.7012" stroke-miterlimit="1.6"/>
      <text x="-116.3369" xml:space="preserve" y="117.3633" clip-path="url(#clipPath2)" font-family="sans-serif" stroke="none">p</text>
      <rect fill="none" x="26" width="100" height="64" y="126" clip-path="url(#clipPath2)"/>
      <text x="59.7532" font-size="13px" y="144.0698" clip-path="url(#clipPath4)" font-family="sans-serif" stroke="none" font-weight="bold" xml:space="preserve">Point</text>
      <line stroke-linecap="square" clip-path="url(#clipPath4)" fill="none" x1="27" x2="125" y1="151" y2="151" stroke-miterlimit="10"/>
      <text x="31" xml:space="preserve" y="168.9907" clip-path="url(#clipPath4)" font-family="sans-serif" stroke="none">x: int = 5</text>
      <text x="31" xml:space="preserve" y="183.6919" clip-path="url(#clipPath4)" font-family="sans-serif" stroke="none">y: int = 7</text>
      <line stroke-linecap="square" clip-path="url(#clipPath4)" fill="none" x1="27" x2="125" y1="191" y2="191" stroke-miterlimit="10"/>
      <rect stroke-linecap="square" x="70.6631" y="103.2988" clip-path="url(#clipPath2)" fill="none" width="10.6738" height="18.7012" stroke-miterlimit="1.6"/>
      <text x="72.6631" xml:space="preserve" y="117.3633" clip-path="url(#clipPath2)" font-family="sans-serif" stroke="none">q</text>
    </g>
  </g>
</svg>
