<?xml version="1.0" encoding="UTF-8"?><svg xmlns="http://www.w3.org/2000/svg" xmlns:xlink="http://www.w3.org/1999/xlink" fill-opacity="1" color-rendering="auto" color-interpolation="auto" text-rendering="auto" stroke="black" stroke-linecap="square" width="237" stroke-miterlimit="10" shape-rendering="auto" stroke-opacity="1" fill="black" stroke-dasharray="none" font-weight="normal" stroke-width="1" height="225" font-family="'Dialog'" font-style="normal" stroke-linejoin="miter" font-size="12px" stroke-dashoffset="0" image-rendering="auto">
  <!--Generated by ySVG 2.6-->
  <defs id="genericDefs"/>
  <g>
    <defs id="defs1">
      <clipPath clipPathUnits="userSpaceOnUse" id="clipPath1">
        <path d="M0 0 L237 0 L237 225 L0 225 L0 0 Z"/>
      </clipPath>
      <clipPath clipPathUnits="userSpaceOnUse" id="clipPath2">
        <path d="M-148 12 L89 12 L89 237 L-148 237 L-148 12 Z"/>
      </clipPath>
      <clipPath clipPathUnits="userSpaceOnUse" id="clipPath3">
        <path d="M-133 126 L-133 190 L-33 190 L-33 126 Z"/>
      </clipPath>
      <clipPath clipPathUnits="userSpaceOnUse" id="clipPath4">
        <path d="M23 110 L23 158 L73 158 L73 110 Z"/>
      </clipPath>
      <clipPath clipPathUnits="userSpaceOnUse" id="clipPath5">
        <path d="M23 173 L23 221 L73 221 L73 173 Z"/>
      </clipPath>
    </defs>
    <g fill="white" text-rendering="geometricPrecision" shape-rendering="geometricPrecision" transform="translate(148,-12)" stroke="white">
      <rect x="-148" width="237" height="225" y="12" clip-path="url(#clipPath2)" stroke="none"/>
    </g>
    <g text-rendering="geometricPrecision" stroke-miterlimit="1.45" shape-rendering="geometricPrecision" transform="matrix(1,0,0,1,148,-12)" stroke-linecap="butt">
      <rect fill="none" x="-90" width="14" height="14" y="171" clip-path="url(#clipPath2)"/>
      <rect fill="none" x="-133" width="100" height="64" y="126" clip-path="url(#clipPath2)"/>
      <text x="-99.2468" font-size="13px" y="144.0698" clip-path="url(#clipPath3)" font-family="sans-serif" stroke="none" font-weight="bold" xml:space="preserve">Point</text>
      <line stroke-linecap="square" clip-path="url(#clipPath3)" fill="none" x1="-132" x2="-34" y1="151" y2="151" stroke-miterlimit="10"/>
      <text x="-128" xml:space="preserve" y="168.9907" clip-path="url(#clipPath3)" font-family="sans-serif" stroke="none">x: int = </text>
      <text x="-128" xml:space="preserve" y="183.6919" clip-path="url(#clipPath3)" font-family="sans-serif" stroke="none">y: int = </text>
      <line stroke-linecap="square" clip-path="url(#clipPath3)" fill="none" x1="-132" x2="-34" y1="191" y2="191" stroke-miterlimit="10"/>
      <circle stroke-linecap="square" clip-path="url(#clipPath2)" r="4" cx="-83" cy="164" stroke="none" stroke-miterlimit="10"/>
      <circle fill="none" r="4" clip-path="url(#clipPath2)" cx="-83" cy="164"/>
      <rect fill="none" x="-90" width="14" height="14" y="157" clip-path="url(#clipPath2)"/>
      <rect fill="none" x="23.5" width="50" height="48" y="110" clip-path="url(#clipPath2)"/>
      <text x="40.5591" font-size="13px" y="128.0698" clip-path="url(#clipPath4)" font-family="sans-serif" stroke="none" font-weight="bold" xml:space="preserve">int</text>
      <line stroke-linecap="square" clip-path="url(#clipPath4)" fill="none" x1="24" x2="72" y1="135" y2="135" stroke-miterlimit="10"/>
      <text x="28.5" xml:space="preserve" y="152.9907" clip-path="url(#clipPath4)" font-family="sans-serif" stroke="none">5</text>
      <line stroke-linecap="square" clip-path="url(#clipPath4)" fill="none" x1="24" x2="72" y1="160" y2="160" stroke-miterlimit="10"/>
      <circle stroke-linecap="square" clip-path="url(#clipPath2)" r="4" cx="-83" cy="65" stroke="none" stroke-miterlimit="10"/>
      <circle fill="none" r="4" clip-path="url(#clipPath2)" cx="-83" cy="65"/>
      <rect fill="none" x="-98" width="30" height="30" y="50" clip-path="url(#clipPath2)"/>
      <text x="-86.3369" xml:space="preserve" y="41.3633" clip-path="url(#clipPath2)" font-family="sans-serif" stroke="none">p</text>
      <rect fill="none" x="23.5" width="50" height="48" y="174" clip-path="url(#clipPath2)"/>
      <text x="40.5591" font-size="13px" y="192.0698" clip-path="url(#clipPath5)" font-family="sans-serif" stroke="none" font-weight="bold" xml:space="preserve">int</text>
      <line stroke-linecap="square" clip-path="url(#clipPath5)" fill="none" x1="24" x2="72" y1="199" y2="199" stroke-miterlimit="10"/>
      <text x="28.5" xml:space="preserve" y="216.9907" clip-path="url(#clipPath5)" font-family="sans-serif" stroke="none">7</text>
      <line stroke-linecap="square" clip-path="url(#clipPath5)" fill="none" x1="24" x2="72" y1="224" y2="224" stroke-miterlimit="10"/>
      <circle stroke-linecap="square" clip-path="url(#clipPath2)" r="4" cx="-83" cy="178" stroke="none" stroke-miterlimit="10"/>
      <circle fill="none" r="4" clip-path="url(#clipPath2)" cx="-83" cy="178"/>
      <path fill="none" d="M-79.1002 163.1103 L15.685 141.4863" clip-path="url(#clipPath2)"/>
      <path d="M23.4846 139.7069 L10.6731 137.5013 L14.7101 141.7087 L12.8973 147.2508 Z" clip-path="url(#clipPath2)" stroke="none"/>
      <path fill="none" d="M-83 69 L-83 117.9722" clip-path="url(#clipPath2)"/>
      <path d="M-83 125.9722 L-78 113.9722 L-83 116.9722 L-88 113.9722 Z" clip-path="url(#clipPath2)" stroke="none"/>
      <path fill="none" d="M-79.0455 178.6015 L15.5863 192.9941" clip-path="url(#clipPath2)"/>
      <path d="M23.4954 194.197 L12.3836 187.4495 L14.5977 192.8438 L10.88 197.3358 Z" clip-path="url(#clipPath2)" stroke="none"/>
    </g>
  </g>
</svg>
