<?xml version="1.0" encoding="UTF-8"?><svg xmlns="http://www.w3.org/2000/svg" xmlns:xlink="http://www.w3.org/1999/xlink" fill-opacity="1" color-rendering="auto" color-interpolation="auto" text-rendering="auto" stroke="black" stroke-linecap="square" width="81" stroke-miterlimit="10" shape-rendering="auto" stroke-opacity="1" fill="black" stroke-dasharray="none" font-weight="normal" stroke-width="1" height="185" font-family="'Dialog'" font-style="normal" stroke-linejoin="miter" font-size="12px" stroke-dashoffset="0" image-rendering="auto">
  <!--Generated by ySVG 2.6-->
  <defs id="genericDefs"/>
  <g>
    <defs id="defs1">
      <clipPath clipPathUnits="userSpaceOnUse" id="clipPath1">
        <path d="M0 0 L81 0 L81 185 L0 185 L0 0 Z"/>
      </clipPath>
      <clipPath clipPathUnits="userSpaceOnUse" id="clipPath2">
        <path d="M-43 12 L38 12 L38 197 L-43 197 L-43 12 Z"/>
      </clipPath>
      <clipPath clipPathUnits="userSpaceOnUse" id="clipPath3">
        <path d="M-27 134 L-27 182 L23 182 L23 134 Z"/>
      </clipPath>
    </defs>
    <g fill="white" text-rendering="geometricPrecision" shape-rendering="geometricPrecision" transform="translate(43,-12)" stroke="white">
      <rect x="-43" width="81" height="185" y="12" clip-path="url(#clipPath2)" stroke="none"/>
    </g>
    <g text-rendering="geometricPrecision" stroke-miterlimit="1.45" shape-rendering="geometricPrecision" transform="matrix(1,0,0,1,43,-12)" stroke-linecap="butt">
      <rect fill="none" x="-17.5" width="30" height="30" y="50" clip-path="url(#clipPath2)"/>
      <text x="-5.5" xml:space="preserve" y="41.3633" clip-path="url(#clipPath2)" font-family="sans-serif" stroke="none">x</text>
      <circle stroke-linecap="square" clip-path="url(#clipPath2)" r="4" cx="-2.5" cy="65" stroke="none" stroke-miterlimit="10"/>
      <circle fill="none" r="4" clip-path="url(#clipPath2)" cx="-2.5" cy="65"/>
      <rect fill="none" x="-27.5" width="50" height="48" y="134" clip-path="url(#clipPath2)"/>
      <text x="-10.4409" font-size="13px" y="152.0698" clip-path="url(#clipPath3)" font-family="sans-serif" stroke="none" font-weight="bold" xml:space="preserve">int</text>
      <line stroke-linecap="square" clip-path="url(#clipPath3)" fill="none" x1="-26" x2="21" y1="159" y2="159" stroke-miterlimit="10"/>
      <text x="-22.5" xml:space="preserve" y="176.9907" clip-path="url(#clipPath3)" font-family="sans-serif" stroke="none">5</text>
      <line stroke-linecap="square" clip-path="url(#clipPath3)" fill="none" x1="-26" x2="21" y1="184" y2="184" stroke-miterlimit="10"/>
      <path fill="none" d="M-2.5 69 L-2.5 125.9683" clip-path="url(#clipPath2)"/>
      <path d="M-2.5 133.9683 L2.5 121.9683 L-2.5 124.9683 L-7.5 121.9683 Z" clip-path="url(#clipPath2)" stroke="none"/>
    </g>
  </g>
</svg>
